<svg xmlns="http://www.w3.org/2000/svg" width="62.849" height="45.959" viewBox="0 0 62.849 45.959">
  <g id="Group_13737" data-name="Group 13737" transform="translate(-218.574 -225.034)">
    <path id="Path_3309" data-name="Path 3309" d="M261.7,248.245H239.062v4.464h3.144v19.763h20.022V252.709h3.144v-4.464Z" transform="translate(-2.219 -2.538)" fill="#4eef61" stroke="#2e2236" stroke-linecap="round" stroke-linejoin="round" stroke-width="1.8"/>
    <path id="Path_3310" data-name="Path 3310" d="M265.2,269.194l5.072-9.633h7.475a3.522,3.522,0,0,0,3.522-3.522l-.413-18.33a5.28,5.28,0,0,0-1.314-2.492" transform="translate(-5.192 -1.056)" fill="none" stroke="#043575" stroke-linecap="round" stroke-linejoin="round" stroke-width="1.8"/>
    <path id="Path_3311" data-name="Path 3311" d="M275.055,235.217s-1.643,1.718-2.094,2.177l-4.176,4.141a2.291,2.291,0,0,1-1.594.6l-2.7.245c-2.668.082-2.881,4.388-.336,4.388h3.87c.722,0,.9.139,1.455-.33l3.739-2.485v10.039H268.9a3.1,3.1,0,0,0-2.716,1.609l-1.309,2.429" transform="translate(-4.869 -1.056)" fill="none" stroke="#043575" stroke-linecap="round" stroke-linejoin="round" stroke-width="1.8"/>
    <path id="Path_3312" data-name="Path 3312" d="M273.184,260.411h11.637l1.718-17.727" transform="translate(-6.1 -1.905)" fill="none" stroke="#043575" stroke-linecap="round" stroke-linejoin="round" stroke-width="1.8"/>
    <path id="Path_3313" data-name="Path 3313" d="M279.27,263.013v9.822l-6.562,1.316" transform="translate(-6.046 -4.218)" fill="none" stroke="#043575" stroke-linecap="round" stroke-linejoin="round" stroke-width="1.8"/>
    <path id="Path_3314" data-name="Path 3314" d="M286.674,275.412l-6.562-1.316v1.316" transform="translate(-6.888 -5.479)" fill="none" stroke="#043575" stroke-linecap="round" stroke-linejoin="round" stroke-width="1.8"/>
    <path id="Path_3315" data-name="Path 3315" d="M240.548,269.2l-5.073-9.637H228a3.522,3.522,0,0,1-3.523-3.522l.414-18.33a5.281,5.281,0,0,1,1.313-2.492" transform="translate(-0.56 -1.056)" fill="none" stroke="#043575" stroke-linecap="round" stroke-linejoin="round" stroke-width="1.8"/>
    <path id="Path_3316" data-name="Path 3316" d="M231.127,235.217s1.643,1.718,2.093,2.177l4.176,4.141a2.293,2.293,0,0,0,1.594.6l2.7.245c2.721.051,2.88,4.388.336,4.388h-3.87c-.723,0-.906.139-1.455-.33l-3.74-2.485v10.039h4.314a3.1,3.1,0,0,1,2.715,1.609l1.311,2.432" transform="translate(-1.316 -1.056)" fill="none" stroke="#043575" stroke-linecap="round" stroke-linejoin="round" stroke-width="1.8"/>
    <path id="Path_3317" data-name="Path 3317" d="M232.912,260.411H221.275l-1.718-17.727" transform="translate(0 -1.905)" fill="none" stroke="#043575" stroke-linecap="round" stroke-linejoin="round" stroke-width="1.8"/>
    <path id="Path_3318" data-name="Path 3318" d="M227.7,263.013v9.822l6.562,1.316" transform="translate(-0.926 -4.218)" fill="none" stroke="#043575" stroke-linecap="round" stroke-linejoin="round" stroke-width="1.8"/>
    <path id="Path_3319" data-name="Path 3319" d="M220.294,275.412l6.563-1.316v1.316" transform="translate(-0.084 -5.479)" fill="none" stroke="#043575" stroke-linecap="round" stroke-linejoin="round" stroke-width="1.8"/>
    <path id="Path_3320" data-name="Path 3320" d="M253.371,235.341a4.163,4.163,0,1,1,4.163-4.163A4.167,4.167,0,0,1,253.371,235.341Z" transform="translate(-3.373 -0.123)" fill="none" stroke="#043575" stroke-linecap="round" stroke-linejoin="round" stroke-width="1.8"/>
    <path id="Path_3321" data-name="Path 3321" d="M256.491,235.958l4.105.922c1.9.407,3.323,2.311,3.614,5.544" transform="translate(-4.201 -1.14)" fill="none" stroke="#043575" stroke-linecap="round" stroke-linejoin="round" stroke-width="1.8"/>
    <path id="Path_3322" data-name="Path 3322" d="M250.329,235.958l-4.105.922c-1.9.407-3.323,2.311-3.615,5.544" transform="translate(-2.622 -1.14)" fill="none" stroke="#043575" stroke-linecap="round" stroke-linejoin="round" stroke-width="1.8"/>
    <circle id="Ellipse_87" data-name="Ellipse 87" cx="4.284" cy="4.284" r="4.284" transform="translate(223.796 225.934)" fill="none" stroke="#043575" stroke-linecap="round" stroke-linejoin="round" stroke-width="1.8"/>
    <circle id="Ellipse_88" data-name="Ellipse 88" cx="4.284" cy="4.284" r="4.284" transform="translate(267.632 225.934)" fill="none" stroke="#043575" stroke-linecap="round" stroke-linejoin="round" stroke-width="1.8"/>
  </g>
</svg>
